ModelForces
version=1
nRows=4
nColumns=94
inDegrees=yes

This file contains the forces exerted on a model during a simulation.

A force is a generalized force, meaning that it can be either a force (N) or a torque (Nm).

Units are S.I. units (second, meters, Newtons, ...)
Angles are in degrees.

endheader 
time	addbrev_l	addlong_l	addmagDist_l	addmagIsch_l	addmagMid_l	addmagProx_l	bflh_l	bfsh_l	edl_l	ehl_l	fdl_l	fhl_l	gaslat_l	gasmed_l	glmax1_l	glmax2_l	glmax3_l	glmed1_l	glmed2_l	glmed3_l	glmin1_l	glmin2_l	glmin3_l	grac_l	iliacus_l	perbrev_l	perlong_l	piri_l	psoas_l	recfem_l	sart_l	semimem_l	semiten_l	soleus_l	tfl_l	tibant_l	tibpost_l	vasint_l	vaslat_l	vasmed_l	addbrev_r	addlong_r	addmagDist_r	addmagIsch_r	addmagMid_r	addmagProx_r	bflh_r	bfsh_r	edl_r	ehl_r	fdl_r	fhl_r	gaslat_r	gasmed_r	glmax1_r	glmax2_r	glmax3_r	glmed1_r	glmed2_r	glmed3_r	glmin1_r	glmin2_r	glmin3_r	grac_r	iliacus_r	perbrev_r	perlong_r	piri_r	psoas_r	recfem_r	sart_r	semimem_r	semiten_r	soleus_r	tfl_r	tibant_r	tibpost_r	vasint_r	vaslat_r	vasmed_r	lumbar_extension	lumbar_bending	lumbar_rotation	arm_flex_l	arm_add_l	arm_rot_l	arm_flex_r	arm_add_r	arm_rot_r	elbow_flex_l	elbow_flex_r	pro_sup_l	pro_sup_r	
          7.81000000	         15.93764470	        292.52732446	          7.87006723	          7.33655555	          8.38074503	        325.43047385	       1685.01341656	        234.86790741	        143.56487760	         47.29062847	          2.36528509	          5.84691521	        221.21527077	        576.62254821	         15.11175652	        282.28247439	        586.60833104	          6.48041193	          5.37334378	          6.24371438	          2.40323119	          2.05064224	          0.14447503	        231.87550087	          7.07686573	         45.30153724	        119.14541812	          0.00347050	        777.02454517	        750.93120091	        137.64978231	         59.43565801	        237.14851834	         26.40390847	          2.76129994	        593.02509620	          7.14652839	         17.61985294	         51.68516330	         26.09337777	         36.49656229	         70.31802691	          6.44921448	          4.63467748	         63.22142968	        212.88930851	        110.59127117	         60.30398884	         37.66935185	          8.69203300	          4.97446250	         12.04712170	         31.77761291	         28.37892597	         10.73052304	         17.20098400	        539.52554655	          9.96712694	          8.71230574	         11.24993606	          3.20801367	          3.37613305	          1.89086462	          9.00080878	         10.47780058	         25.03070799	         81.86207325	         13.47191868	        456.43784671	         20.43747354	         68.04585455	         14.30981431	          5.20813109	        150.88918673	          0.00012534	        158.88555398	         19.40980419	         27.65459754	         66.08656782	         38.28448838	         86.91917881	        105.66667845	         20.99482556	       -116.88752955	       -104.69715028	         82.06134622	         42.61390243	       -133.30699831	        -95.20950545	        -47.12218012	        -48.80290345	          3.44342945	        -10.28793950	
          7.82000000	         11.60812548	        228.45178694	          6.62075434	          5.92486901	          6.92587399	        296.02427950	       1645.52530173	        239.27683566	        167.78230528	         48.86067959	          2.25246222	          5.67315166	        224.30591174	        603.79093022	         13.03136526	        239.03810307	        464.30906294	          7.38825551	          6.19876727	          7.35014140	          2.70289382	          2.71533380	          0.70464506	        176.09120959	          7.67511608	         61.35514756	        146.09470525	        111.68618061	        839.70614342	        680.97486160	        190.59686284	         42.02505856	        175.11761697	         27.51955808	          3.48919135	        640.69851924	          6.88365304	         19.02447552	         55.45127518	         27.96877924	         34.83218276	         79.65837501	          6.01783106	          4.05692147	         52.57923523	        186.10910370	         79.87791538	         52.88951612	         36.62384620	         13.69728574	          4.76411107	         11.34802809	         23.77563032	         37.62760430	         10.32664691	         16.32300595	        425.28885993	         10.23311885	          8.57634145	         10.79703563	          3.42123159	          3.46358923	          2.01163262	          8.51652970	         10.36227752	         20.97385538	         76.47404550	         10.69106398	        428.87207834	         15.52382503	         60.39907843	         11.65191877	          4.38671686	        153.01311628	          0.00011324	        157.62779060	         17.96970309	         50.61349890	        464.44480753	         97.14782184	         76.89695565	         63.02086914	         -2.43960919	       -125.56503332	       -115.40924448	         98.20756765	         70.31341067	       -136.70856278	        -29.83207268	        -71.73144557	        -74.14977324	          5.69160840	         -0.99385259	
          7.83000000	          8.55504220	        129.58799965	          5.34061631	          4.52281198	          5.61595479	        240.88709591	       1453.23821618	        238.22406769	        187.08653124	         49.96199373	          2.48741248	          6.26636911	        220.02070700	        598.75933325	         10.99304690	        197.92216062	        348.65578852	          8.31489044	          6.85586782	          8.08909981	          3.02611020	          3.30496920	          1.26885454	        127.48531275	          8.45527823	         69.93906039	        168.23093029	         80.25263882	        984.68478288	        756.48878832	        219.58168399	         21.72160269	        124.85576414	         35.42133795	          4.83993664	        669.58609122	          8.27842090	         20.49553325	         59.41118962	         29.97035319	         31.43731550	         79.55875328	          5.55805579	          3.50105280	         43.17798617	        161.46968728	         60.37367687	         48.09938496	         36.31624879	         10.30034552	          4.47443107	         10.51839883	         15.27236183	         11.94416091	          9.86620492	         15.38303469	        335.17784048	         10.08644072	          8.23331803	         10.16699377	          3.47303506	          3.41958915	          1.96339043	          7.89782365	         10.07843727	         16.01538265	         80.09385165	          7.81488918	        388.70873830	         19.30586331	         41.41604105	         10.04113953	          3.79440253	        184.83836447	          0.00013440	        163.21882668	         16.83297388	         65.14473724	        407.67589547	        100.77555364	         32.45686185	         10.06465881	        -32.11154805	       -132.28303974	       -123.18012832	         57.05810281	         90.75622803	       -140.09665327	         16.39533344	        -57.64703928	        -93.84819656	          4.11581661	          6.78691681	
          7.84000000	          6.45613567	        169.85785085	          4.15804116	          3.19228902	          4.47241304	        183.91514459	       1204.69274403	        211.73341598	        195.33152318	         48.48674448	          3.02069689	          7.16848553	        193.69583009	        554.04851176	          9.11247699	        161.16740484	        296.18991103	          9.19288233	          7.35395947	          8.54536693	          3.34588001	          3.78413858	          1.76197600	         79.65272403	         11.66661688	         71.92427230	        181.76117750	        101.22850051	       1149.04778852	        906.11925544	        240.82214864	          7.13716745	         73.69826886	         45.19649765	          5.88376966	        665.81244953	         10.58342189	         21.50140718	         62.12046029	         31.38799697	         27.11198356	         71.62914344	          5.05697581	          2.95515183	         34.89431561	        138.01596367	         46.41777398	         44.30744594	         35.73823735	         12.98670003	          4.35869458	         10.27626696	         18.70681338	         57.92500338	          9.40522689	         14.46343574	        263.77512029	          9.76162074	          7.81208031	          9.48484236	          3.44326606	          3.32752132	          1.80337252	          6.99013060	          9.60874531	         15.13830625	         80.06014746	          5.62011567	        365.11422789	         14.33307353	        120.91620478	          8.87354330	          3.24663876	        120.23404371	          0.00000296	        169.34846705	         16.03164984	         51.07821932	        321.73649637	         79.83460460	        -50.16388107	         -7.77257947	        -30.47888257	       -137.28722039	        -69.45392387	          2.80013902	        105.09930964	        -93.78487334	         43.48595161	         -5.23156527	        -81.77173276	         -1.07765357	          7.46735466	
